<?xml version="1.0" encoding="UTF-8"?>
<svg id="Capa_1" data-name="Capa 1" xmlns="http://www.w3.org/2000/svg" viewBox="0 0 1200 670">
  <defs>
    <style>
      .cls-1 {
        fill: #fff;
      }
    </style>
  </defs>
  <path class="cls-1" d="m594.78,49.9c-3.99.55-7.87,1.73-11.49,3.52l-163.48,80.61c-1.42.55-1.04,2.65.48,2.68l69.68,1.11c1.82.03,3.57.68,4.97,1.84l103.78,85.89c2.35,1.95,5.66,2.23,8.31.72l169.85-96.89c2.44-1.39,2.75-4.8.58-6.6l-98.85-82.38c-1.71-1.42-4.03-1.85-6.13-1.13l-77.71,10.64Z"/>
  <g>
    <g>
      <g>
        <path class="cls-1" d="m583.14,245.39l-154.84-94.72c-2.98-1.82-6.81.32-6.81,3.82l.09,179.97c0,1.56.81,3,2.14,3.81l154.41,94.54c2.97,1.82,6.78-.3,6.81-3.78l.23-30.39c.01-1.58-.81-3.04-2.16-3.86l-123.07-74.56c-1.33-.81-2.15-2.25-2.16-3.82l-.22-91.26c0-3.49,3.81-5.65,6.8-3.83l114.05,69.24c2.98,1.81,6.79-.33,6.8-3.82l.07-37.52c0-1.56-.81-3.01-2.14-3.83Z"/>
        <path class="cls-1" d="m583.14,245.39c-46.96-28.57-108.58-66.25-155.56-94.31-2.39-1.21-5.5.78-5.34,3.48,0,0,0,1.01,0,1.01l.02,2.02.5,64.7c.22,29.1.63,82.65.85,111.21-.02,1.01.02,2.22.98,2.85.08.06.13.09.24.16l.43.26,3.46,2.09c45.1,27.29,105.86,64.29,150.63,91.83,1.3.86,3.23-.15,3.14-1.81,0,0,.15-16.18.15-16.18-.01-2.92.11-9.36.12-12.13,0,0,.02-2,.02-2,0-.64-.3-1.27-.79-1.66-.06-.05-.13-.09-.19-.14l-.42-.26s-.86-.53-.86-.53c-35.24-21.5-85.37-52.39-120.61-74.08,0,0-.9-.56-.9-.56-1.85-1.16-2.85-3.48-2.67-5.6,0,0,0-2.02,0-2.02.07-16.64.36-71.55.45-89.03.42-4.4,5.32-6.23,8.77-3.53,0,0,1.72,1.06,1.72,1.06,2,1.2,14.87,9.2,17.21,10.62,21.42,13.16,67.79,41.7,89.63,54.97,0,0,3.45,2.1,3.45,2.1,1.11.75,2.36,1.35,3.73,1.14,1.32-.18,2.53-.98,3.22-2.12.74-1.17.61-2.58.62-3.9,0,0,.03-8.09.03-8.09l.06-16.18s.03-8.09.03-8.09c0-2.58.53-5.82-2.12-7.33h0Zm0,0c2.64,1.51,2.13,4.75,2.14,7.33,0,0,0,8.09,0,8.09,0,0,0,16.18,0,16.18,0,0,0,8.09,0,8.09.28,2.9-.76,5.66-3.94,6.16-1.39.22-2.72-.4-3.82-1.15,0,0-3.46-2.09-3.46-2.09l-6.92-4.19c-25.66-15.32-71.81-43.32-97.09-58.27,0,0-3.47-2.07-3.47-2.07,0,0-1.74-1.04-1.74-1.04,0,0-.86-.51-.86-.51-.25-.13-.5-.27-.78-.34-1.07-.35-2.29-.17-3.21.48-.93.63-1.55,1.68-1.6,2.79,0,0,.6,64.64.6,64.64.05,5.37.18,19.08.23,24.26.06.86-.1,2.87.19,3.57.28.99,1.21,1.61,2.06,2.07,0,0,27.79,16.56,27.79,16.56,23.95,14.27,70.25,41.92,93.71,56.04,0,0,.87.52.87.52,2.22,1.16,3.74,3.54,3.72,6.07,0,3.94-.06,10.25-.07,14.18,0,0-.1,16.18-.1,16.18,0,.9-.19,2.03-.63,2.97-1.71,3.87-6.93,5.24-10.35,2.71,0,0-1.73-1.05-1.73-1.05-44-26.76-104.21-63.93-148.13-91.09-.57-.41-3.91-2.36-4.45-2.81-1.9-1.42-2.74-3.83-2.54-6.15,0,0,.01-2.02.01-2.02.03-2.51.06-9.52.08-12.13.28-47.33.8-116.3,1.09-163.78,0,0,0-1.01,0-1.01.02-.37.02-.78.13-1.16.78-3.68,5.21-5.34,8.27-3.04.39.26,2.12,1.31,2.58,1.6,45.04,27.99,105.99,65.61,151.44,93.42h0Z"/>
      </g>
      <g>
        <path class="cls-1" d="m614.43,432v-182.65c0-1.58.83-3.04,2.19-3.85l155.14-92.02c2.98-1.77,6.76.38,6.76,3.85v180.63c0,1.44-.7,2.8-1.87,3.64l-21.31,15.25c-2.96,2.12-7.08,0-7.08-3.64v-125.66c0-3.52-3.87-5.66-6.85-3.79l-27.36,17.17c-1.3.82-2.1,2.25-2.1,3.79v133.96c0,1.61-.86,3.09-2.26,3.89l-20.76,11.81c-2.98,1.69-6.67-.45-6.69-3.87l-.51-122.1c-.01-3.48-3.83-5.61-6.8-3.8l-27.39,16.7c-1.33.81-2.15,2.26-2.15,3.82v133.53c0,1.56-.82,3.01-2.15,3.83l-22.01,13.35c-2.98,1.81-6.79-.34-6.79-3.83Z"/>
        <path class="cls-1" d="m614.43,432c.05-49.6-.25-131.04-.43-180.48-.02-1.71-.21-3.65.94-5.1.86-1.28,2.98-2.14,4.21-2.99,0,0,8.59-5.16,8.59-5.16,41.42-24.75,102.79-62.02,144.24-86.56,3.8-1.54,8.34,1.66,8.11,5.79,0,0,0,1.25,0,1.25.05,14.65.51,86.63.57,102.77.04,13.34.16,47.28.21,60.16,0,0,.03,10.03.03,10.03,0,0,0,5.01,0,5.01-.02.96.06,2.23-.28,3.17-.48,1.74-1.73,3.16-3.23,4.11,0,0-1.02.73-1.02.73-1.25.87-4.8,3.46-6.11,4.38-2.73,1.98-9.59,6.87-12.22,8.77,0,0-1.02.73-1.02.73-1.48,1.14-3.43,1.72-5.29,1.42-3.36-.42-6.08-3.6-5.93-7.02,0,0,0-.31,0-.31,0,0,0-.63,0-.63-.08-27.03,0-95.01.04-122.83-.07-1.43.24-2.23-.53-3.09-.71-.75-1.82-.93-2.67-.35,0,0-1.06.66-1.06.66-1.25.74-5.06,3.18-6.38,3.97-1.16.79-18.79,11.65-19.15,11.93,0,0-.53.33-.53.33,0,0-.26.16-.26.16-1.39.84-.98,2.49-1.04,3.92-.08,32.82-.48,98.61-.66,131.6.09,2.24-1.12,4.47-3.09,5.55,0,0-1.09.61-1.09.61,0,0-2.19,1.23-2.19,1.23,0,0-8.74,4.91-8.74,4.91,0,0-8.74,4.91-8.74,4.91-.91.52-2.05.84-3.15.79-3.42-.13-5.96-3.12-5.67-6.51.04-26.79.15-93.52.19-120.32.49-3.5-2.59-6.22-5.86-4.4-2.22,1.33-5.81,3.5-8.06,4.85,0,0-17.18,10.34-17.18,10.34-1.04.72-3.19,1.61-3.7,2.92-.74,1.17-.4,3.4-.48,4.74-.03,31.75-.4,99.09-.34,130.35.11,1.69-.79,3.41-2.28,4.23,0,0-4.29,2.59-4.29,2.59,0,0-8.58,5.19-8.58,5.19,0,0-8.58,5.19-8.58,5.19-.7.45-1.47.84-2.31.91-2.54.31-5.05-1.86-4.97-4.46h0Zm0,0c-.07,2.58,2.41,4.78,4.96,4.44.84-.07,1.6-.46,2.3-.91,0,0,8.57-5.21,8.57-5.21l8.57-5.21s4.28-2.6,4.28-2.6c1.46-.82,2.34-2.5,2.23-4.16-.07-31.1-.18-98.72-.34-130.35,0,0-.01-2.51-.01-2.51-.13-1.77.8-3.69,2.38-4.59,4.56-2.82,19.02-11.74,23.46-14.49,1-.63,2.76-1.69,3.73-2.3,4.01-2.4,8.38.97,7.84,5.43.27,26.81.94,93.51,1.2,120.32,0,0,0,.63,0,.63l.03.44c.27,2.07,2.82,3.35,4.62,2.17,0,0,8.69-5.01,8.69-5.01s8.69-5.01,8.69-5.01l2.17-1.25s1.09-.63,1.09-.63c.89-.51,1.46-1.5,1.45-2.51-.16-34.6-.65-100.22-.64-134.63.18-2.05,1.36-3.97,3.1-5.06.86-.57,2.12-1.32,2.92-1.85,5.11-3.2,19.41-12.3,24.37-15.41,4.69-3.04,10.94.74,10.56,6.25,0,0,0,1.25,0,1.25.04,28.13.12,95.52.04,122.83,0,0,0,.63,0,.63,0,0,0,.31,0,.31-.07,1.08.65,2.03,1.75,2.2,1.08.22,1.94-.77,2.76-1.28,2.71-1.92,17.19-12.29,20.19-14.43.84-.61.7-1.88.71-2.78,0,0,0-5.01,0-5.01.18-49.64.46-120.51.8-170.46,0,0,.01-2.51.01-2.51,0,0,0-1.25,0-1.25.09-1.48-.88-2.71-2.3-3.05-1.4-.3-2.22.41-3.57,1.18,0,0-4.33,2.53-4.33,2.53-42.47,24.88-104.71,61.28-147.11,86.11-3.73,2.18-5.05,2.34-4.78,7.24-.27,49.36-.38,130.99-.43,180.48h0Z"/>
      </g>
    </g>
    <g>
      <path class="cls-1" d="m97.27,562.5c-7,0-12.9-2.38-17.71-7.15-4.81-4.76-7.21-10.76-7.21-17.99s2.43-13.05,7.28-17.88c4.86-4.83,10.92-7.25,18.19-7.25,8.61,0,15.37,3.41,20.3,10.22l-9.8,7.6c-2.99-3.73-6.54-5.59-10.63-5.59-3.36,0-6.12,1.24-8.29,3.73-2.16,2.49-3.25,5.55-3.25,9.18s1.08,6.76,3.25,9.22c2.16,2.46,4.92,3.69,8.29,3.69,2.35,0,4.35-.49,6.01-1.48,1.66-.99,3.29-2.45,4.9-4.38l10.08,7.18c-2.53,3.45-5.48,6.13-8.84,8.04-3.36,1.91-7.55,2.87-12.57,2.87Z"/>
      <path class="cls-1" d="m120.54,561.53l20.58-48.68h12.91l20.58,48.68h-14.36l-3.52-8.63h-18.64l-3.45,8.63h-14.09Zm21.47-19.06h10.84l-5.39-13.74-5.46,13.74Z"/>
      <path class="cls-1" d="m179.3,561.53v-48.33h22.85c7.04,0,12.29,1.73,15.74,5.18,2.85,2.85,4.28,6.67,4.28,11.46,0,7.09-3.31,12.04-9.94,14.84l11.53,16.85h-15.47l-9.74-14.64h-5.87v14.64h-13.39Zm13.39-25.13h8.84c2.25,0,4.02-.52,5.28-1.55,1.27-1.04,1.9-2.47,1.9-4.32s-.63-3.31-1.9-4.28c-1.27-.97-3.05-1.45-5.35-1.45h-8.77v11.6Z"/>
      <path class="cls-1" d="m228.94,561.53v-48.33h13.39v36.59h23.41v11.74h-36.8Z"/>
      <path class="cls-1" d="m311.63,555.18c-5,4.88-11.2,7.32-18.61,7.32s-13.59-2.43-18.54-7.28-7.42-10.81-7.42-17.85,2.5-12.93,7.49-17.81c4.99-4.88,11.2-7.32,18.61-7.32s13.59,2.43,18.54,7.29c4.95,4.86,7.42,10.81,7.42,17.85s-2.5,12.94-7.49,17.81Zm-18.47-4.76c3.64,0,6.59-1.27,8.87-3.8,2.28-2.53,3.42-5.62,3.42-9.25s-1.17-6.66-3.52-9.22c-2.35-2.56-5.32-3.83-8.91-3.83s-6.53,1.27-8.8,3.8c-2.28,2.53-3.42,5.62-3.42,9.25s1.16,6.66,3.49,9.22c2.32,2.55,5.28,3.83,8.87,3.83Z"/>
      <path class="cls-1" d="m345.08,562.36c-9.11,0-16.66-2.67-22.65-8.01l7.46-8.91c4.83,3.87,10.06,5.8,15.67,5.8,3.68,0,5.52-1.15,5.52-3.45,0-1.01-.55-1.85-1.66-2.52-1.11-.67-3.27-1.37-6.49-2.11-2.95-.69-5.37-1.37-7.28-2.04-1.91-.67-3.77-1.56-5.59-2.69-1.82-1.13-3.17-2.57-4.04-4.32-.88-1.75-1.31-3.84-1.31-6.28,0-4.56,1.69-8.27,5.07-11.15,3.38-2.88,7.93-4.32,13.64-4.32,7.92,0,14.55,2.14,19.89,6.42l-6.7,9.46c-4.51-3.18-9.02-4.76-13.53-4.76-1.57,0-2.76.3-3.59.9-.83.6-1.24,1.38-1.24,2.35,0,1.1.56,1.98,1.69,2.62,1.13.65,3.35,1.34,6.66,2.07,6.08,1.34,10.6,3.12,13.57,5.35s4.45,5.51,4.45,9.84c0,4.88-1.77,8.72-5.32,11.53-3.54,2.81-8.29,4.21-14.22,4.21Z"/>
      <path class="cls-1" d="m390.24,561.53v-48.33h14.15l11.53,18.71,11.53-18.71h14.16v48.33h-13.33v-27.76l-12.36,18.92h-.28l-12.29-18.78v27.62h-13.12Z"/>
      <path class="cls-1" d="m446.3,561.53l20.58-48.68h12.91l20.58,48.68h-14.36l-3.52-8.63h-18.64l-3.45,8.63h-14.09Zm21.47-19.06h10.84l-5.39-13.74-5.46,13.74Z"/>
      <path class="cls-1" d="m505.06,561.53v-48.33h22.85c7.04,0,12.29,1.73,15.74,5.18,2.85,2.85,4.28,6.67,4.28,11.46,0,7.09-3.31,12.04-9.94,14.84l11.53,16.85h-15.47l-9.74-14.64h-5.87v14.64h-13.39Zm13.39-25.13h8.84c2.25,0,4.02-.52,5.28-1.55,1.27-1.04,1.9-2.47,1.9-4.32s-.63-3.31-1.9-4.28c-1.27-.97-3.05-1.45-5.35-1.45h-8.77v11.6Z"/>
      <path class="cls-1" d="m566.51,561.53v-36.59h-14.5v-11.74h42.4v11.74h-14.5v36.59h-13.4Z"/>
      <path class="cls-1" d="m600.55,561.53v-48.33h13.46v48.33h-13.46Zm1.45-51.58l7.18-12.77,12.22,3.94-10.15,8.84h-9.25Z"/>
      <path class="cls-1" d="m622.85,561.53v-48.33h12.5l19.89,25.55v-25.55h13.26v48.33h-11.74l-20.64-26.51v26.51h-13.26Z"/>
      <path class="cls-1" d="m677.06,561.53v-48.33h38.87v11.39h-25.62v7.32h23.2v10.56h-23.2v7.66h25.96v11.39h-39.22Z"/>
      <path class="cls-1" d="m721.59,561.53v-9.74l24.24-27.27h-23.41v-11.32h41.91v9.74l-24.24,27.27h24.24v11.32h-42.74Z"/>
      <path class="cls-1" d="m790.43,561.53v-48.33h14.15l11.53,18.71,11.53-18.71h14.16v48.33h-13.33v-27.76l-12.36,18.92h-.28l-12.29-18.78v27.62h-13.12Z"/>
      <path class="cls-1" d="m846.5,561.53l20.58-48.68h12.91l20.58,48.68h-14.36l-3.52-8.63h-18.64l-3.45,8.63h-14.09Zm21.47-19.06h10.84l-5.39-13.74-5.46,13.74Z"/>
      <path class="cls-1" d="m905.25,561.53v-48.33h22.85c7.04,0,12.29,1.73,15.74,5.18,2.85,2.85,4.28,6.67,4.28,11.46,0,7.09-3.31,12.04-9.94,14.84l11.53,16.85h-15.47l-9.74-14.64h-5.87v14.64h-13.39Zm13.39-25.13h8.84c2.25,0,4.02-.52,5.28-1.55,1.27-1.04,1.9-2.47,1.9-4.32s-.63-3.31-1.9-4.28c-1.27-.97-3.05-1.45-5.35-1.45h-8.77v11.6Z"/>
      <path class="cls-1" d="m955.17,561.53v-48.33h13.46v48.33h-13.46Z"/>
      <path class="cls-1" d="m973.61,561.53l20.58-48.68h12.91l20.58,48.68h-14.36l-3.52-8.63h-18.64l-3.45,8.63h-14.09Zm21.47-19.06h10.84l-5.39-13.74-5.46,13.74Z"/>
      <path class="cls-1" d="m1052.53,562.5c-7,0-12.9-2.38-17.71-7.15-4.81-4.76-7.21-10.76-7.21-17.99s2.43-13.05,7.28-17.88c4.86-4.83,10.92-7.25,18.19-7.25,8.61,0,15.37,3.41,20.3,10.22l-9.8,7.6c-2.99-3.73-6.54-5.59-10.63-5.59-3.36,0-6.12,1.24-8.29,3.73-2.16,2.49-3.25,5.55-3.25,9.18s1.08,6.76,3.25,9.22c2.16,2.46,4.92,3.69,8.29,3.69,2.35,0,4.35-.49,6.01-1.48,1.66-.99,3.29-2.45,4.9-4.38l10.08,7.18c-2.53,3.45-5.48,6.13-8.84,8.04-3.36,1.91-7.55,2.87-12.57,2.87Z"/>
      <path class="cls-1" d="m1075.8,561.53l20.58-48.68h12.91l20.58,48.68h-14.36l-3.52-8.63h-18.64l-3.45,8.63h-14.09Zm21.47-19.06h10.84l-5.39-13.74-5.46,13.74Z"/>
    </g>
    <g>
      <path class="cls-1" d="m236.44,628.45l13.75-29.74h2.11l13.75,29.74h-2.4l-3.75-8.27h-17.42l-3.75,8.27h-2.28Zm6.96-10.25h15.57l-7.76-17.09-7.8,17.09Z"/>
      <path class="cls-1" d="m271.84,628.45v-21.52h2.07v6.12c.87-1.97,2.16-3.56,3.86-4.77,1.7-1.21,3.59-1.77,5.67-1.69v2.28h-.21c-2.62,0-4.82.96-6.62,2.87-1.8,1.91-2.7,4.54-2.7,7.89v8.82h-2.07Z"/>
      <path class="cls-1" d="m305.59,635.2v-11.56c-2.33,3.54-5.29,5.32-8.86,5.32-2.76,0-5.19-1.03-7.3-3.1s-3.16-4.79-3.16-8.16,1.05-6.06,3.16-8.14c2.11-2.08,4.54-3.12,7.3-3.12,3.66,0,6.61,1.72,8.86,5.15v-4.64h2.07v28.27h-2.07Zm-14.62-10.8c1.65,1.72,3.63,2.57,5.97,2.57s4.38-.88,6.14-2.64c1.76-1.76,2.64-3.99,2.64-6.69s-.88-4.88-2.64-6.62c-1.76-1.74-3.8-2.62-6.14-2.62s-4.43.84-6.03,2.51c-1.6,1.67-2.4,3.93-2.4,6.77s.82,4.99,2.47,6.71Z"/>
      <path class="cls-1" d="m323.69,628.96c-2.67,0-4.77-.82-6.31-2.47s-2.3-3.78-2.3-6.39v-13.16h2.07v12.78c0,2.25.6,4.04,1.81,5.36s2.88,1.98,5.02,1.98,3.92-.72,5.34-2.17c1.42-1.45,2.13-3.28,2.13-5.51v-12.45h2.07v21.52h-2.07v-4.01c-1.72,3.01-4.3,4.51-7.76,4.51Z"/>
      <path class="cls-1" d="m341.41,601.33v-2.83h2.57v2.83h-2.57Zm.25,27.13v-21.52h2.07v21.52h-2.07Z"/>
      <path class="cls-1" d="m359.04,628.83c-1.77,0-3.22-.5-4.35-1.5-1.12-1-1.69-2.47-1.69-4.41v-14.09h-3.12v-1.9h3.12v-6.88h2.07v6.88h7.55v1.9h-7.55v13.88c0,2.78,1.43,4.18,4.3,4.18.98,0,2.04-.25,3.16-.76v1.94c-1.1.51-2.26.76-3.5.76Z"/>
      <path class="cls-1" d="m377.18,628.96c-2.9,0-5.38-1.05-7.45-3.16s-3.1-4.82-3.1-8.14.98-5.81,2.93-7.97c1.96-2.17,4.38-3.25,7.28-3.25s5.34,1.07,7.15,3.21c1.81,2.14,2.72,4.82,2.72,8.06,0,.34-.01.62-.04.84h-17.85c.2,2.59,1.1,4.65,2.72,6.18,1.62,1.53,3.52,2.3,5.72,2.3,2.81,0,5.27-1.12,7.38-3.38l1.43,1.27c-2.5,2.7-5.47,4.05-8.9,4.05Zm-8.35-12.28h15.65c-.17-2.36-.91-4.35-2.24-5.95-1.32-1.6-3.15-2.41-5.48-2.41-2.11,0-3.91.79-5.4,2.38-1.49,1.59-2.33,3.58-2.53,5.97Z"/>
      <path class="cls-1" d="m402.24,628.96c-3.09,0-5.7-1.1-7.8-3.29-2.11-2.19-3.16-4.85-3.16-7.97s1.06-5.74,3.18-7.95c2.12-2.21,4.72-3.31,7.78-3.31,3.35,0,6.2,1.34,8.56,4.01l-1.43,1.48c-2.31-2.36-4.7-3.54-7.17-3.54s-4.44.91-6.14,2.74c-1.7,1.83-2.55,4.02-2.55,6.58s.86,4.79,2.57,6.6c1.71,1.81,3.81,2.72,6.29,2.72s4.94-1.22,7.13-3.67l1.52,1.35c-2.5,2.84-5.43,4.26-8.78,4.26Z"/>
      <path class="cls-1" d="m424.01,628.83c-1.77,0-3.22-.5-4.35-1.5-1.12-1-1.69-2.47-1.69-4.41v-14.09h-3.12v-1.9h3.12v-6.88h2.07v6.88h7.55v1.9h-7.55v13.88c0,2.78,1.43,4.18,4.3,4.18.98,0,2.04-.25,3.16-.76v1.94c-1.1.51-2.26.76-3.5.76Z"/>
      <path class="cls-1" d="m450.53,625.63c-2.12,2.22-4.76,3.33-7.91,3.33s-5.77-1.1-7.87-3.31c-2.1-2.21-3.14-4.86-3.14-7.95s1.06-5.71,3.18-7.93,4.76-3.33,7.91-3.33,5.77,1.1,7.87,3.31c2.09,2.21,3.14,4.86,3.14,7.95s-1.06,5.71-3.19,7.93Zm-7.83,1.39c2.39,0,4.45-.91,6.18-2.74,1.73-1.83,2.59-4.02,2.59-6.58s-.86-4.79-2.59-6.6c-1.73-1.81-3.82-2.72-6.27-2.72s-4.49.91-6.2,2.72c-1.72,1.81-2.57,4.01-2.57,6.6s.86,4.79,2.57,6.6c1.71,1.81,3.81,2.72,6.29,2.72Z"/>
      <path class="cls-1" d="m471.77,617.1v-2.36h11.31v2.36h-11.31Z"/>
      <path class="cls-1" d="m503.07,628.45v-29.53h9.83c4.61,0,8.38,1.4,11.31,4.2,2.92,2.8,4.39,6.32,4.39,10.57s-1.47,7.73-4.41,10.55c-2.94,2.81-6.7,4.22-11.29,4.22h-9.83Zm2.19-2.03h7.64c4.02,0,7.26-1.21,9.72-3.63,2.46-2.42,3.69-5.46,3.69-9.11s-1.23-6.62-3.69-9.07c-2.46-2.45-5.7-3.67-9.72-3.67h-7.64v25.48Z"/>
      <path class="cls-1" d="m535.64,601.33v-2.83h2.57v2.83h-2.57Zm.25,27.13v-21.52h2.07v21.52h-2.07Z"/>
      <path class="cls-1" d="m553.07,628.87c-1.55,0-3.12-.29-4.7-.87s-2.96-1.33-4.11-2.26l1.22-1.65c2.45,1.88,5.02,2.83,7.72,2.83,1.49,0,2.73-.38,3.71-1.14.98-.76,1.48-1.77,1.48-3.04,0-1.15-.49-2.03-1.46-2.62-.97-.59-2.38-1.15-4.24-1.69-.98-.28-1.7-.49-2.15-.63-.45-.14-1.08-.39-1.9-.76-.82-.37-1.41-.73-1.79-1.1-.38-.37-.73-.85-1.05-1.46-.32-.6-.49-1.29-.49-2.05,0-1.74.66-3.17,1.98-4.28s3.02-1.67,5.11-1.67c2.73,0,5.27.79,7.64,2.36l-1.1,1.73c-2.17-1.43-4.37-2.15-6.62-2.15-1.46,0-2.64.36-3.54,1.08-.9.72-1.35,1.64-1.35,2.76,0,.45.12.87.36,1.27.24.39.52.72.84.97.32.25.79.51,1.39.78.6.27,1.12.47,1.56.61.44.14,1.05.32,1.84.55,1.07.31,1.94.59,2.62.84s1.4.62,2.17,1.1c.77.48,1.35,1.06,1.73,1.75.38.69.57,1.5.57,2.43,0,1.88-.71,3.4-2.13,4.56-1.42,1.15-3.19,1.73-5.29,1.73Z"/>
      <path class="cls-1" d="m576.14,628.96c-2.9,0-5.38-1.05-7.45-3.16s-3.1-4.82-3.1-8.14.98-5.81,2.93-7.97c1.96-2.17,4.38-3.25,7.28-3.25s5.34,1.07,7.15,3.21c1.81,2.14,2.72,4.82,2.72,8.06,0,.34-.01.62-.04.84h-17.85c.2,2.59,1.1,4.65,2.72,6.18,1.62,1.53,3.52,2.3,5.72,2.3,2.81,0,5.27-1.12,7.38-3.38l1.43,1.27c-2.5,2.7-5.47,4.05-8.9,4.05Zm-8.35-12.28h15.65c-.17-2.36-.91-4.35-2.24-5.95-1.32-1.6-3.15-2.41-5.48-2.41-2.11,0-3.91.79-5.4,2.38-1.49,1.59-2.33,3.58-2.53,5.97Z"/>
      <path class="cls-1" d="m591.71,628.45v-21.52h2.07v4.01c1.71-3.01,4.3-4.51,7.76-4.51,2.67,0,4.77.82,6.31,2.47s2.3,3.78,2.3,6.39v13.16h-2.07v-12.78c0-2.25-.61-4.04-1.81-5.36-1.21-1.32-2.88-1.98-5.02-1.98s-3.92.72-5.34,2.17c-1.42,1.45-2.13,3.28-2.13,5.51v12.45h-2.07Zm4.39-24.72l-1.43-.38c.39-1.46.86-2.48,1.41-3.06.55-.58,1.26-.86,2.13-.86.53,0,1.46.29,2.76.86,1.31.58,2.19.87,2.64.87.51,0,.91-.15,1.2-.44s.6-.85.91-1.67l1.43.38c-.39,1.46-.86,2.48-1.41,3.06s-1.26.86-2.13.86c-.53,0-1.45-.29-2.74-.86s-2.18-.87-2.66-.87c-.51,0-.91.15-1.2.44s-.6.85-.91,1.67Z"/>
      <path class="cls-1" d="m635.02,625.63c-2.12,2.22-4.76,3.33-7.91,3.33s-5.77-1.1-7.87-3.31c-2.1-2.21-3.14-4.86-3.14-7.95s1.06-5.71,3.18-7.93,4.76-3.33,7.91-3.33,5.77,1.1,7.87,3.31c2.09,2.21,3.14,4.86,3.14,7.95s-1.06,5.71-3.19,7.93Zm-7.83,1.39c2.39,0,4.45-.91,6.18-2.74,1.73-1.83,2.59-4.02,2.59-6.58s-.86-4.79-2.59-6.6c-1.73-1.81-3.82-2.72-6.27-2.72s-4.49.91-6.2,2.72c-1.72,1.81-2.57,4.01-2.57,6.6s.86,4.79,2.57,6.6c1.71,1.81,3.81,2.72,6.29,2.72Z"/>
      <path class="cls-1" d="m659.84,635.33c-1.43,0-2.85-.31-4.26-.93l.72-1.81c1.1.53,2.32.8,3.67.8,1.12,0,2.09-.38,2.91-1.14.82-.76,1.62-2.07,2.4-3.92l-10.34-21.39h2.4l8.94,19.24,7.76-19.24h2.28l-9.32,22.28c-.93,2.19-1.96,3.76-3.1,4.7-1.14.94-2.5,1.41-4.07,1.41Z"/>
      <path class="cls-1" d="m708.53,628.96c-4.19,0-7.69-1.47-10.48-4.41-2.8-2.94-4.2-6.56-4.2-10.86s1.41-7.82,4.22-10.8c2.81-2.98,6.33-4.47,10.55-4.47,2.42,0,4.48.41,6.18,1.22,1.7.82,3.42,2.02,5.17,3.63l-1.43,1.48c-2.98-2.9-6.3-4.35-9.96-4.35s-6.5,1.27-8.88,3.82c-2.38,2.55-3.56,5.7-3.56,9.47s1.2,6.89,3.61,9.45c2.41,2.56,5.37,3.84,8.88,3.84,2.05,0,3.87-.38,5.44-1.14,1.58-.76,3.15-1.91,4.73-3.46l1.48,1.43c-1.72,1.69-3.49,2.97-5.32,3.84-1.83.87-3.97,1.31-6.41,1.31Z"/>
      <path class="cls-1" d="m742.85,625.63c-2.12,2.22-4.76,3.33-7.91,3.33s-5.77-1.1-7.87-3.31c-2.1-2.21-3.14-4.86-3.14-7.95s1.06-5.71,3.18-7.93,4.76-3.33,7.91-3.33,5.77,1.1,7.87,3.31c2.09,2.21,3.14,4.86,3.14,7.95s-1.06,5.71-3.19,7.93Zm-7.83,1.39c2.39,0,4.45-.91,6.18-2.74,1.73-1.83,2.59-4.02,2.59-6.58s-.86-4.79-2.59-6.6c-1.73-1.81-3.82-2.72-6.27-2.72s-4.49.91-6.2,2.72c-1.72,1.81-2.57,4.01-2.57,6.6s.86,4.79,2.57,6.6c1.71,1.81,3.81,2.72,6.29,2.72Z"/>
      <path class="cls-1" d="m752.4,628.45v-21.52h2.07v4.01c1.71-3.01,4.3-4.51,7.76-4.51,2.67,0,4.77.82,6.31,2.47s2.3,3.78,2.3,6.39v13.16h-2.07v-12.78c0-2.25-.61-4.04-1.81-5.36-1.21-1.32-2.88-1.98-5.02-1.98s-3.92.72-5.34,2.17c-1.42,1.45-2.13,3.28-2.13,5.51v12.45h-2.07Z"/>
      <path class="cls-1" d="m785.23,628.87c-1.55,0-3.12-.29-4.7-.87s-2.96-1.33-4.11-2.26l1.22-1.65c2.45,1.88,5.02,2.83,7.72,2.83,1.49,0,2.73-.38,3.71-1.14.98-.76,1.48-1.77,1.48-3.04,0-1.15-.49-2.03-1.46-2.62-.97-.59-2.38-1.15-4.24-1.69-.98-.28-1.7-.49-2.15-.63-.45-.14-1.08-.39-1.9-.76-.82-.37-1.41-.73-1.79-1.1-.38-.37-.73-.85-1.05-1.46-.32-.6-.49-1.29-.49-2.05,0-1.74.66-3.17,1.98-4.28s3.02-1.67,5.11-1.67c2.73,0,5.27.79,7.64,2.36l-1.1,1.73c-2.17-1.43-4.37-2.15-6.62-2.15-1.46,0-2.64.36-3.54,1.08-.9.72-1.35,1.64-1.35,2.76,0,.45.12.87.36,1.27.24.39.52.72.84.97.32.25.79.51,1.39.78.6.27,1.12.47,1.56.61.44.14,1.05.32,1.84.55,1.07.31,1.94.59,2.62.84s1.4.62,2.17,1.1c.77.48,1.35,1.06,1.73,1.75.38.69.57,1.5.57,2.43,0,1.88-.71,3.4-2.13,4.56-1.42,1.15-3.19,1.73-5.29,1.73Z"/>
      <path class="cls-1" d="m805.98,628.83c-1.77,0-3.22-.5-4.35-1.5-1.12-1-1.69-2.47-1.69-4.41v-14.09h-3.12v-1.9h3.12v-6.88h2.07v6.88h7.55v1.9h-7.55v13.88c0,2.78,1.43,4.18,4.3,4.18.98,0,2.04-.25,3.16-.76v1.94c-1.1.51-2.26.76-3.5.76Z"/>
      <path class="cls-1" d="m815.69,628.45v-21.52h2.07v6.12c.87-1.97,2.16-3.56,3.86-4.77,1.7-1.21,3.59-1.77,5.67-1.69v2.28h-.21c-2.62,0-4.82.96-6.62,2.87-1.8,1.91-2.7,4.54-2.7,7.89v8.82h-2.07Z"/>
      <path class="cls-1" d="m840.75,628.96c-2.67,0-4.77-.82-6.31-2.47s-2.3-3.78-2.3-6.39v-13.16h2.07v12.78c0,2.25.6,4.04,1.81,5.36s2.88,1.98,5.02,1.98,3.92-.72,5.34-2.17c1.42-1.45,2.13-3.28,2.13-5.51v-12.45h2.07v21.52h-2.07v-4.01c-1.72,3.01-4.3,4.51-7.76,4.51Z"/>
      <path class="cls-1" d="m867.92,628.96c-3.09,0-5.7-1.1-7.8-3.29-2.11-2.19-3.16-4.85-3.16-7.97s1.06-5.74,3.18-7.95c2.12-2.21,4.72-3.31,7.78-3.31,3.35,0,6.2,1.34,8.56,4.01l-1.43,1.48c-2.31-2.36-4.7-3.54-7.17-3.54s-4.44.91-6.14,2.74c-1.7,1.83-2.55,4.02-2.55,6.58s.86,4.79,2.57,6.6c1.71,1.81,3.81,2.72,6.29,2.72s4.94-1.22,7.13-3.67l1.52,1.35c-2.5,2.84-5.43,4.26-8.78,4.26Z"/>
      <path class="cls-1" d="m891.37,628.96c-3.09,0-5.7-1.1-7.8-3.29-2.11-2.19-3.16-4.85-3.16-7.97s1.06-5.74,3.18-7.95c2.12-2.21,4.72-3.31,7.78-3.31,3.35,0,6.2,1.34,8.56,4.01l-1.43,1.48c-2.31-2.36-4.7-3.54-7.17-3.54s-4.44.91-6.14,2.74c-1.7,1.83-2.55,4.02-2.55,6.58s.86,4.79,2.57,6.6c1.71,1.81,3.81,2.72,6.29,2.72s4.94-1.22,7.13-3.67l1.52,1.35c-2.5,2.84-5.43,4.26-8.78,4.26Z"/>
      <path class="cls-1" d="m906.01,601.33v-2.83h2.57v2.83h-2.57Zm.25,27.13v-21.52h2.07v21.52h-2.07Z"/>
      <path class="cls-1" d="m933.92,625.63c-2.12,2.22-4.76,3.33-7.91,3.33s-5.77-1.1-7.87-3.31c-2.1-2.21-3.14-4.86-3.14-7.95s1.06-5.71,3.18-7.93,4.76-3.33,7.91-3.33,5.77,1.1,7.87,3.31c2.09,2.21,3.14,4.86,3.14,7.95s-1.06,5.71-3.19,7.93Zm-7.83,1.39c2.39,0,4.45-.91,6.18-2.74,1.73-1.83,2.59-4.02,2.59-6.58s-.86-4.79-2.59-6.6c-1.73-1.81-3.82-2.72-6.27-2.72s-4.49.91-6.2,2.72c-1.72,1.81-2.57,4.01-2.57,6.6s.86,4.79,2.57,6.6c1.71,1.81,3.81,2.72,6.29,2.72Zm-.89-23.67l3.71-5.61,2.57,1.27-4.51,4.34h-1.77Z"/>
      <path class="cls-1" d="m943.47,628.45v-21.52h2.07v4.01c1.71-3.01,4.3-4.51,7.76-4.51,2.67,0,4.77.82,6.31,2.47s2.3,3.78,2.3,6.39v13.16h-2.07v-12.78c0-2.25-.61-4.04-1.81-5.36-1.21-1.32-2.88-1.98-5.02-1.98s-3.92.72-5.34,2.17c-1.42,1.45-2.13,3.28-2.13,5.51v12.45h-2.07Z"/>
    </g>
    <path class="cls-1" d="m37,580.67c348.23-2.57,707.34-2.55,1055.63-.53,0,0,70.37.53,70.37.53,0,0-70.38.53-70.38.53-348.29,2.02-707.38,2.04-1055.62-.53h0Z"/>
  </g>
</svg>