<?xml version="1.0" encoding="UTF-8"?>
<svg id="Capa_1" data-name="Capa 1" xmlns="http://www.w3.org/2000/svg" viewBox="0 0 1200 1200">
  <defs>
    <style>
      .cls-1 {
        fill: #fff;
      }
    </style>
  </defs>
  <path class="cls-1" d="m588.4,74.72c-11.17,1.53-22.02,4.85-32.14,9.84L98.99,310.03c-3.96,1.55-2.9,7.42,1.35,7.49l194.91,3.09c5.09.08,9.99,1.89,13.91,5.13l290.29,240.24c6.58,5.44,15.83,6.24,23.25,2.02l475.08-271c6.84-3.9,7.68-13.43,1.63-18.47L822.92,48.12c-4.77-3.98-11.28-5.18-17.15-3.16l-217.37,29.76Z"/>
  <g>
    <g>
      <path class="cls-1" d="m555.83,621.52L122.72,356.59c-8.34-5.1-19.05.9-19.04,10.68l.25,503.4c0,4.35,2.27,8.39,5.98,10.67l431.89,264.43c8.3,5.08,18.97-.84,19.05-10.58l.65-85.02c.03-4.41-2.26-8.51-6.03-10.8l-344.24-208.56c-3.73-2.26-6.02-6.31-6.03-10.67l-.63-255.26c-.02-9.77,10.66-15.8,19.01-10.73l319.01,193.68c8.33,5.06,18.99-.93,19.01-10.67l.21-104.94c0-4.37-2.26-8.42-5.98-10.7Z"/>
      <path class="cls-1" d="m555.83,621.52c-87.12-53.14-346.38-211.53-429.74-262.08,0,0-2.42-1.47-2.42-1.47,0,0-1.21-.73-1.21-.73-3.44-2.09-7.88-2.42-11.48-.52-4.05,1.95-6.65,6.29-6.54,10.77,0,0,0,2.83,0,2.83.61,147.22.94,345.48,1.51,492.04,0,0,.02,5.66.02,5.66-.03,1.4-.06,3.76.32,5.14.67,2.7,2.42,5.06,4.81,6.48,0,0,1.21.74,1.21.74,0,0,9.66,5.88,9.66,5.88,82.34,50.2,343.07,209.64,422.05,257.92,6.51,3.19,14.56-1.66,14.4-9.32.26-24.13.45-61.19.7-84.81.04-4.06-2.48-7.55-6.02-9.35,0,0-2.42-1.47-2.42-1.47-99.74-60.57-240.76-146.52-340.6-207.39-4.49-2.8-6.75-8.28-6.33-13.43-.02-50.28.08-202.09.1-254.56.46-8.94,10.6-14.98,18.7-11.04,0,0,1.32.69,1.32.69,0,0,2.42,1.47,2.42,1.47,0,0,4.83,2.95,4.83,2.95,5.58,3.3,41.74,25.57,48.27,29.48,60.07,36.52,190.02,115.99,251.14,153.03,0,0,9.67,5.88,9.67,5.88,3.11,2.1,6.67,3.79,10.51,3.19,6.87-.93,11.48-7.22,10.82-14.13,0,0,0-2.83,0-2.83.06-25.25.16-65.24.23-90.49-.06-2.79.16-8.43-.06-11.31-.43-3.76-2.65-7.24-5.89-9.21h0Zm0,0c4.12,2.47,6.36,7.29,5.99,12.03,0,0,0,2.83,0,2.83.09,3.06-.11,24.59-.04,28.28,0,15.2-.1,53.23-.1,67.87-.09,3.7.38,7.78-1.75,11.03-2.92,4.94-9.33,7.46-14.79,5.51-1.82-.57-3.39-1.69-5-2.64-66.08-39.98-195.84-118.64-261.31-158.09-6.4-3.73-42.59-25.8-48.42-29.23,0,0-4.84-2.92-4.84-2.92l-2.42-1.45-1.19-.61c-7.08-3.41-16.22,1.88-16.52,9.83.25,53.4.95,203.42,1.22,254.44-.4,5.78,2.31,9.85,7.43,12.39,99.24,59.74,240.11,144.66,339.04,204.41,0,0,2.42,1.46,2.42,1.46,4.93,2.53,8.39,7.76,8.33,13.36,0,11.07-.22,28.61-.27,39.61,0,0-.32,45.24-.32,45.24-.03,2.11-.43,4.46-1.37,6.49-3.66,7.97-13.97,11.21-21.47,6.41-77.2-47.13-340.1-208.47-420.67-257.95-1.76-1.06-10.58-6.45-12.18-7.59-3.51-2.66-5.67-6.98-5.7-11.38,0,0,0-2.86,0-2.86-.03-3.37.06-13.41.03-16.97.19-141.73.77-338.45.99-480.73,0,0,0-2.83,0-2.83.05-.97.07-2.01.31-2.96.75-3.94,3.52-7.37,7.11-9.11,4.56-2.33,9.94-1.54,14.04,1.38,0,0,2.41,1.48,2.41,1.48,81.35,50.21,343.38,210.7,429.04,263.24h0Z"/>
    </g>
    <g>
      <path class="cls-1" d="m643.35,1143.47v-510.89c0-4.42,2.33-8.51,6.13-10.76l433.95-257.39c8.34-4.95,18.9,1.06,18.9,10.76v505.23c0,4.04-1.95,7.83-5.23,10.18l-59.61,42.66c-8.28,5.93-19.8,0-19.8-10.18v-351.48c0-9.84-10.83-15.83-19.16-10.6l-76.53,48.03c-3.65,2.29-5.86,6.29-5.86,10.6v374.71c0,4.5-2.42,8.65-6.33,10.88l-58.08,33.03c-8.32,4.73-18.66-1.25-18.7-10.82l-1.43-341.54c-.04-9.74-10.71-15.7-19.02-10.63l-76.63,46.7c-3.73,2.27-6,6.32-6,10.69v373.51c0,4.37-2.28,8.43-6.03,10.7l-61.57,37.33c-8.34,5.06-19-.95-19-10.7Z"/>
      <path class="cls-1" d="m643.35,1143.47c-.02-40.13-.4-486.87-.41-511.87.29-4.93,3.68-9.13,8.03-11.22,78.22-46.63,239.41-142.66,319.22-190.23,8.84-5.29,104.85-62.46,111.43-66.4,5.38-3.76,13.23-3.37,17.97,1.34,2.87,2.69,4.39,6.7,4.3,10.59,0,0,0,3.51,0,3.51.11,1.66.05,59.59.13,63.1-.13,123.5.88,312.99.69,434.71-.06,2.12.18,5.54-.61,7.64-.95,3.32-3.16,6.26-6,8.19,0,0-1.43,1.02-1.43,1.02,0,0-2.85,2.04-2.85,2.04-3.51,2.45-13.43,9.67-17.1,12.25-7.64,5.51-26.83,19.2-34.2,24.5-.55.4-3.05,2.19-3.56,2.55-5.41,3.99-13.32,3.71-18.42-.7-3.81-3.06-5.58-8.01-5.31-12.81,0-.27,0-8.1,0-8.76,0,0-.05-112.18-.05-112.18,0,0,.09-224.37.09-224.37v-3.51c.72-7.74-7.02-13.8-14.31-10.46,0,0-1.28.69-1.28.69,0,0-2.97,1.86-2.97,1.86-15.68,9.85-55.25,34.55-71.32,44.63-1.74,1.12-3.63,2.09-4.86,3.79-2.81,3.33-2.06,7.94-2.15,12.05-.41,93.78.14,277.81-1,371.93-.84,3.86-3.39,7.32-6.84,9.24,0,0-3.05,1.73-3.05,1.73,0,0-6.1,3.45-6.1,3.45-12.15,6.78-36.66,20.82-48.82,27.63-2.21,1.26-4.85,2.02-7.45,1.9-7.34-.2-13.58-6.53-13.48-13.92-.16-75.94-.56-262.3-.72-338.3-.03-2.28.14-4.57-.56-6.75-1.92-6.53-9.96-10.23-16.13-7.25-1.84.88-4.22,2.48-5.98,3.51-3.94,2.33-13.95,8.51-17.98,10.91-3.49,2.11-51.64,31.33-53.95,32.73-4,2.31-6.28,6.86-5.99,11.45,0,0-.01,7.01-.01,7.01.11,88.81-.5,277.18-.34,364.59.29,4.7-2.19,9.46-6.32,11.77,0,0-11.99,7.27-11.99,7.27-11.79,7.11-36.14,21.92-47.98,29.06-8.18,6.05-20.26.88-20.35-9.9h0Zm0,0c.06,10.3,11.85,16.2,20.33,9.88,12.05-7.41,35.93-21.74,47.95-29.1,0,0,11.99-7.28,11.99-7.28,4.11-2.31,6.57-7.02,6.27-11.7-.17-90.76-.11-279.61-.35-371.61-.32-4.81,2.11-9.75,6.34-12.18,12.77-7.84,53.33-32.64,65.78-40.27,0,0,5.98-3.66,5.98-3.66,1.82-1.08,4.23-2.69,6.1-3.6,6.84-3.31,15.73.73,17.89,7.98.77,2.29.62,4.77.65,7.15.47,74.98,1.64,261.56,2.11,336.54,0,0,.01,1.75.01,1.75,0,0,.11,1.57.11,1.57.68,5.21,5.44,9.43,10.7,9.53,2.08.08,4.11-.5,5.95-1.55,12.15-7.05,36.56-20.82,48.7-27.83,0,0,6.09-3.48,6.09-3.48,0,0,3.04-1.74,3.04-1.74,3.66-2.04,5.79-6.19,5.53-10.34-.19-94.25-.58-277.85-.67-371.61-.49-6.16,1.98-12.11,7.63-15.27,0,0,1.48-.93,1.48-.93,12.5-7.86,53.05-33.39,65.28-41.08,0,0,5.93-3.73,5.93-3.73,0,0,2.97-1.87,2.97-1.87,3.52-2.21,8-3.01,12.01-1.79,6.84,1.85,11.44,8.61,10.93,15.62.04,76.52.12,265.94.04,340.05,0,0,0,7.01,0,7.01,0,0,0,1.75,0,1.75-.04,1.49.04,3.05.47,4.47,1.71,6.01,9.69,9.04,14.91,5.46,3.06-1.98,12.47-8.93,15.59-11.09,12.42-8.9,31.93-22.81,44.2-31.61,2.82-1.84,4.6-5.06,4.61-8.43,0,0,0-3.49,0-3.49.05-57.26.18-152.23.25-210.34.05-45.94.51-245.04.57-287.47,0,0,0-3.51,0-3.51.08-3.21-1.04-6.13-3.31-8.36-3.33-3.24-8.74-4.09-12.81-1.8-.44.2-.98.54-1.47.83,0,0-3.02,1.78-3.02,1.78-68.18,40.25-231.81,136.85-301.89,178.22-22.22,13.14-105.99,62.55-126.79,74.85-4.13,2-7.33,5.78-7.62,10.47-.15,23.23-.46,473.71-.49,511.8h0Z"/>
    </g>
  </g>
</svg>