<?xml version="1.0" encoding="UTF-8"?>
<svg id="Capa_2" data-name="Capa 2" xmlns="http://www.w3.org/2000/svg" viewBox="0 0 186.41 102.48">
  <defs>
    <style>
      .cls-1 {
        fill: #fff;
      }
    </style>
  </defs>
  <g id="Capa_1-2" data-name="Capa 1">
    <g>
      <path class="cls-1" d="M173.86,100.89c-7.62-4.01-15.14-7.35-23.28-9.16-6.45-1.43-12.89-2.56-19.54-2.82-12.53-.49-24.65,1.48-36.73,4.59-10.66,2.75-21.41,5.26-32.22,7.33-9.49,1.81-19.21,2.09-28.79,1.03-8.81-.98-16.77-4.66-23.86-10.12-4.08-3.14-5.81-7.63-7.05-12.25C-.66,68.11-.19,56.43,.54,44.86c.56-9.01,2.4-17.95,4.93-26.65,1.33-4.57,2.89-9.15,5.79-13.06,1.06-1.44,2.27-2.76,3.45-4.18,7.93,4.97,16.38,7.8,25.05,9.76,5.62,1.27,11.44,1.54,17.27,1.61,10.7,.12,20.98-1.65,31.13-5.03,9.69-3.23,19.7-5.1,29.89-6.35,10.47-1.28,20.91-1.08,31.34-.58,6.69,.32,13.35,1.61,19.86,3.61,4.63,1.42,7.4,4.01,9.37,8.52,3.67,8.39,5.99,17.12,7.31,26.06,.8,5.39,.4,10.97,.34,16.46-.14,13.06-3.43,25.42-8.64,37.32-1.19,2.72-2.39,5.43-3.76,8.53ZM83.34,49.99c.42-4.68-1.22-9.12-4.15-13.1-5.74-7.8-14.19-11.02-24.19-7.88-8.63,2.71-14.31,11.3-14.78,20.42-.32,6.21,1.7,11.62,5.76,16.43,4.78,5.67,13.94,8.77,21.06,6.85,10.61-2.86,16.73-13.19,16.29-22.72Zm66.94,23.23c7.28,.09,13.07-2.88,17.31-8.73,6.19-8.52,6.26-17.44,1.12-26.42-4.65-8.12-14.21-11.87-23.5-9.53-12.74,3.21-19.24,18.18-14.78,30.11,3.41,9.11,10.86,14.48,19.85,14.58Zm-52.18-13.04c7.34-8.82,9.06-17.27,4.92-23.74-3.21-5-11.02-9.05-16.67-6.76-.69,12.11-.4,38.49,.44,42.17h5.37c.12-2.34,.23-4.4,.35-6.68q8.54,8.19,12.72,7.35v-4.22c-2.66-3.03-4.92-5.61-7.13-8.14Zm16.14,4.78q8.67,8.44,12.94,7.58v-4.85c-3.37-1.97-5.35-4.94-7.09-8.11,7.24-6.33,8.13-16.32,5.37-21.99-2.91-5.97-9.35-9.07-16.97-8.14-.79,6.36-.57,39.07,.33,42.71,.77,0,1.58,.04,2.4,0,.94-.05,1.88-.17,3.02-.28v-6.91Zm-75.79-2.04c-2.2,.78-4.4,1.4-6.47,2.33-2.42,1.09-4.83,.7-7.71,.67,5.22-11.57,10.28-22.78,15.31-33.93-8.08-4.9-13.96-5.12-22.49-.92,.52,1.62,1.05,3.27,1.61,5.04,4.13-1.64,8.09-2.44,12.67-1.62-2.74,5.89-5.63,11.44-7.92,17.22-2.34,5.92-6.01,11.31-7.4,17.63,5.33,3.58,10.76,4.76,16.68,2.77,1.4-.47,2.74-1.14,4.11-1.71,4.15-1.75,4.29-2.08,2.47-6.15-.19-.43-.51-.79-.86-1.33Zm133.89,20.34c0-3.26-2.9-6.26-5.85-6.06-2.94,.21-5.4,2.94-5.41,6.01,0,3.41,2.6,6.06,5.86,5.95,2.99-.11,5.4-2.74,5.41-5.9Z"/>
      <path class="cls-1" d="M77.19,50.83c.25,6.96-4.36,14.94-14.36,16.1-4.13,.48-7.81-1.32-10.95-3.87-5.08-4.14-6.9-12.17-4.35-18.59,2.69-6.8,8.14-10.57,15.36-10.29,6.98,.27,13.61,6.79,14.29,14.16,.08,.82,.01,1.66,.01,2.49Z"/>
      <path class="cls-1" d="M150.68,34.18c8.43,0,15.61,7.26,15.46,16.16-.14,8.84-5.72,16.5-15.52,16.55-9.76,.04-15.3-8.32-15.46-16.09-.18-8.89,7.12-16.76,15.52-16.61Z"/>
      <path class="cls-1" d="M92.48,51.87v-15.36c5.26,3.33,6.58,5.9,5.68,10.93-.44,2.47-2.35,4-5.68,4.43Z"/>
      <path class="cls-1" d="M114.48,51.94v-15.16c4.71,2.87,6.39,5.85,5.66,10.04-.52,2.98-2.13,4.49-5.66,5.12Z"/>
      <path class="cls-1" d="M164.28,86.05c-2.11-1.28-2.01-2.98-1-4.93,1.02-1.96,2.6-2.31,4.53-1.74,.19,.05,.25,.51,.37,.78l.1-.11q-3.9,.5-4.04,4.21c-.02,.64-.05,1.28-.08,1.92l.11-.14Z"/>
      <path class="cls-1" d="M168.18,80.16c.47,.08,1.26,.02,1.37,.26,.88,1.91,1.68,3.88-.37,5.61l.13,.15c-.96-1.94,.48-4.29-1.03-6.13l-.1,.11Z"/>
      <path class="cls-1" d="M169.18,86.04c-1.99,1.63-2.98,1.63-4.91,0,0,0-.11,.14-.11,.14,.92-.48,1.84-.95,2.52-1.31,.77,.38,1.7,.85,2.63,1.32l-.13-.15Z"/>
    </g>
  </g>
</svg>