<svg xmlns="http://www.w3.org/2000/svg" xmlns:xlink="http://www.w3.org/1999/xlink" viewBox="0 0 56.25 62.02"><defs><clipPath id="clip-path" transform="translate(0 0)"><rect width="56.25" height="62.02" style="fill:none"/></clipPath></defs><g id="Capa_2" data-name="Capa 2"><g id="Capa_1-2" data-name="Capa 1"><g style="opacity:0.610001027584076"><g style="clip-path:url(#clip-path)"><path d="M39.49,60A14.74,14.74,0,0,1,24.75,45.26V35.85a14.62,14.62,0,0,1,2.7-5.78,14.78,14.78,0,0,1,20.72-2.69l1.21-1.58a16.77,16.77,0,0,0-23.5,3.06,16.21,16.21,0,0,0-1.13,1.66V16.76a14.76,14.76,0,1,1,29.52,0h2A16.76,16.76,0,0,0,39.49,0a17,17,0,0,0-17,16.76v28.5A17,17,0,0,0,39.49,62,16.76,16.76,0,0,0,56.25,45.26h-2A14.78,14.78,0,0,1,39.49,60" transform="translate(0 0)" style="fill:#fff"/><path d="M39.49,51a5.72,5.72,0,0,1-5.72-5.72V37a5.86,5.86,0,0,1,8.88-2.47L44,32.75a8,8,0,0,0-10.26.44V16.76a5.73,5.73,0,1,1,11.45,0h2.26a8,8,0,1,0-16,0v28.5a8,8,0,0,0,16,0H45.22A5.73,5.73,0,0,1,39.49,51" transform="translate(0 0)" style="fill:#fff"/><path d="M50,45.26a10.45,10.45,0,0,1-20.9,0h0v-9A10.44,10.44,0,0,1,45.53,30.8l1.17-1.51a12.37,12.37,0,0,0-17.34,2.25l-.24.34V16.76a10.41,10.41,0,1,1,20.82,0h1.91a12.32,12.32,0,1,0-24.64,0h0v28.5a12.36,12.36,0,0,0,24.72,0Z" transform="translate(0 0)" style="fill:#fff"/><path d="M16.76,55.7A10.44,10.44,0,0,1,6.31,45.26V16.76a10.45,10.45,0,1,1,20.9,0h1.91a12.36,12.36,0,1,0-24.72,0v28.5a12.36,12.36,0,0,0,24.72,0H27.21A10.44,10.44,0,0,1,16.76,55.7" transform="translate(0 0)" style="fill:#fff"/><path d="M16.76,51A5.73,5.73,0,0,1,11,45.26V16.76a5.73,5.73,0,1,1,11.46,0h2.26a8,8,0,1,0-16,0v28.5a8,8,0,0,0,16,0H22.49A5.73,5.73,0,0,1,16.76,51" transform="translate(0 0)" style="fill:#fff"/><path d="M16.76,60A14.77,14.77,0,0,1,2,45.26V16.76a14.77,14.77,0,0,1,29.54,0h2A16.76,16.76,0,0,0,0,16.76v28.5a16.76,16.76,0,1,0,33.52,0h-2A14.77,14.77,0,0,1,16.76,60" transform="translate(0 0)" style="fill:#fff"/><path d="M23.19,12a7.17,7.17,0,0,1,.95,1.52,7.29,7.29,0,0,1,.64,2.23,14.52,14.52,0,0,1,.47-2.85,13.92,13.92,0,0,1,.49-1.5,10,10,0,0,0-.83-1.19,8,8,0,0,0-.7-.79c-.19.4-.39.83-.58,1.31s-.32.87-.44,1.27" transform="translate(0 0)" style="fill:#7f7f7f"/><path d="M25.2,7.73q.29-.45.66-.93a12.52,12.52,0,0,1,.81-1c.24.22.49.46.74.72s.51.55.72.81c-.22.27-.45.58-.69.9s-.53.81-.74,1.18a9.82,9.82,0,0,0-.83-1c-.23-.25-.46-.47-.67-.66" transform="translate(0 0)" style="fill:#7f7f7f"/><path d="M28.07,4.39c.22-.2.46-.4.72-.61.44-.36.88-.67,1.3-.95.21.2.43.44.66.7a9.56,9.56,0,0,1,.64.88,13,13,0,0,0-1.26.93c-.22.18-.43.36-.62.54-.19-.23-.4-.46-.63-.7s-.55-.55-.81-.79" transform="translate(0 0)" style="fill:#7f7f7f"/><path d="M28.16,12a19,19,0,0,1,.57,1.9,16.65,16.65,0,0,1,.39,2.68,10.77,10.77,0,0,1,.94-4.16c.16-.34.32-.65.49-.94a11.16,11.16,0,0,0-.48-1.1c-.16-.33-.32-.64-.48-.92a13.85,13.85,0,0,0-.83,1.29,12.68,12.68,0,0,0-.6,1.25" transform="translate(0 0)" style="fill:#7f7f7f"/><path d="M31,7.85A12.27,12.27,0,0,1,32,7c.24-.18.47-.35.69-.49a7.23,7.23,0,0,1,.48.81,8.18,8.18,0,0,1,.39.9,8.88,8.88,0,0,0-.74.58c-.34.29-.64.58-.9.85-.15-.3-.31-.62-.49-.95s-.31-.55-.47-.8" transform="translate(0 0)" style="fill:#7f7f7f"/><path d="M32.9,12.24a8,8,0,0,1,1-1.2,7.44,7.44,0,0,1,.62-.55,9.79,9.79,0,0,1,.47,1,11.11,11.11,0,0,1,.43,1.26,5.2,5.2,0,0,0-.65.77,7.59,7.59,0,0,0-1,3c0,.18,0,.26,0,.22a19.39,19.39,0,0,0-.48-3.08q-.18-.73-.39-1.38" transform="translate(0 0)" style="fill:#7f7f7f"/><path d="M23.19,50a13.49,13.49,0,0,1-.71-4.59,5.74,5.74,0,0,1-1.56,3.78c.08.35.17.71.28,1.1s.27.9.42,1.31a8,8,0,0,0,1-.87,8.83,8.83,0,0,0,.6-.73" transform="translate(0 0)" style="fill:#7f7f7f"/><path d="M24.21,52.58c.14.27.29.56.46.85s.35.59.53.86c-.22.2-.47.42-.74.64s-.7.52-1,.73a6.7,6.7,0,0,1-.58-.8,5.89,5.89,0,0,1-.42-.83,10.14,10.14,0,0,0,1.18-.89c.22-.19.42-.38.6-.56" transform="translate(0 0)" style="fill:#7f7f7f"/><path d="M26.67,56.21c.21.24.44.48.68.73s.49.47.72.68a11.54,11.54,0,0,1-1,.87c-.29.23-.57.43-.84.62a3.94,3.94,0,0,1-.73-.74,4.67,4.67,0,0,1-.5-.83c.3-.21.62-.44.95-.7s.51-.42.74-.63" transform="translate(0 0)" style="fill:#7f7f7f"/><path d="M27.18,45.46a10.2,10.2,0,0,1-1.44,5.14c.12.32.27.67.44,1s.34.68.52,1a11.29,11.29,0,0,0,.67-1,10.36,10.36,0,0,0,.77-1.52,10.06,10.06,0,0,1-.44-1.18,11.39,11.39,0,0,1-.52-3.43" transform="translate(0 0)" style="fill:#7f7f7f"/><path d="M31.52,45.8a14.85,14.85,0,0,1-.27,2.36,14.61,14.61,0,0,1-.71,2.43c.18.3.4.62.65,1s.5.61.73.86c.16-.34.33-.72.48-1.12a14.9,14.9,0,0,0,.5-1.52,8.7,8.7,0,0,1-.7-1.24,8.17,8.17,0,0,1-.68-2.73" transform="translate(0 0)" style="fill:#7f7f7f"/><path d="M29.58,52.6c.19.24.39.5.62.77s.52.56.76.79c-.2.32-.42.65-.67,1s-.53.69-.78,1a10.4,10.4,0,0,1-.75-.74c-.23-.24-.44-.48-.63-.71A12.66,12.66,0,0,0,29,53.6a11.61,11.61,0,0,0,.63-1" transform="translate(0 0)" style="fill:#7f7f7f"/></g></g></g></g></svg>