<?xml version="1.0" encoding="UTF-8"?>
<svg id="Capa_2" data-name="Capa 2" xmlns="http://www.w3.org/2000/svg" viewBox="0 0 287.41 169.52">
  <defs>
    <style>
      .cls-1 {
        fill: #fff;
      }
    </style>
  </defs>
  <g id="Capa_1-2" data-name="Capa 1">
    <g>
      <path class="cls-1" d="M287.31,101.23c-3.06-24.53-84.78-34.51-182.51-22.3-97.74,12.21,135.93,8.99,138.29,27.82,2.42,19.4-224.94,73.2-127.2,60.99,97.74-12.21,174.49-41.98,171.42-66.51"/>
      <path class="cls-1" d="M228.34,29.53c0,16.31,13.22,29.53,29.54,29.53s29.52-13.22,29.52-29.53S274.18,0,257.88,0s-29.54,13.22-29.54,29.53"/>
      <path class="cls-1" d="M287.41,162.11c0,4.15-3.19,7.41-7.34,7.41s-7.38-3.26-7.38-7.41,3.28-7.32,7.38-7.32,7.34,3.26,7.34,7.32m-12.89,0c0,3.26,2.36,5.85,5.59,5.85s5.46-2.59,5.46-5.81-2.32-5.89-5.51-5.89-5.54,2.64-5.54,5.85m4.41,3.84h-1.66v-7.32c.66-.14,1.57-.22,2.75-.22,1.36,0,1.97,.22,2.49,.53,.39,.31,.7,.9,.7,1.61,0,.8-.61,1.43-1.49,1.69v.09c.7,.26,1.09,.8,1.31,1.78,.22,1.12,.35,1.56,.53,1.83h-1.79c-.22-.27-.35-.94-.57-1.79-.13-.8-.57-1.16-1.49-1.16h-.79v2.95h0Zm.05-4.15h.78c.92,0,1.66-.31,1.66-1.07,0-.67-.48-1.12-1.53-1.12-.43,0-.74,.04-.91,.09v2.1h0Z"/>
      <path class="cls-1" d="M2.6,151.95c.03,.59,.09,.73,.4,.85,.19,.08,.93,.13,1.75,.13,3.02,0,3.38-.09,3.38-.8,0-.35-.16-.6-.43-.69q-.29-.09-1.64-.11H3.69c-1.59,0-2.24-.09-2.79-.37-.62-.32-.9-1-.9-2.17,0-1.54,.44-2.2,1.67-2.5,.69-.18,1.7-.24,3.58-.24,3.01,0,3.7,.08,4.32,.48,.59,.4,.78,.93,.78,2.21h-2.54c0-.75-.26-.85-1.94-.85-.84,0-1.96,.03-2.37,.05-.7,.05-.93,.23-.93,.72,0,.36,.18,.59,.56,.67,.15,.04,.2,.05,1.05,.07h2.43c.23,0,1.39,.04,1.83,.06,1.63,.08,2.27,.8,2.27,2.52,0,1.58-.46,2.27-1.72,2.55-.65,.14-1.92,.22-3.78,.22-2.97,0-3.63-.06-4.39-.45-.52-.26-.8-.91-.8-1.93,0-.08,0-.25,.02-.43H2.6Z"/>
      <polygon class="cls-1" points="26.08 146.11 26.08 148.06 19.15 148.06 19.15 149.53 25.68 149.53 25.68 151.23 19.15 151.23 19.15 152.75 26.17 152.75 26.17 154.69 16.58 154.69 16.58 146.11 26.08 146.11 26.08 146.11"/>
      <path class="cls-1" d="M40.37,149.02c-.02-.69-.32-.95-1.08-.95h-1.58c-1.08-.01-2.15,.02-2.34,.04-.59,.09-.85,.34-.91,.94-.04,.23-.07,1.02-.07,1.57,0,1.41,.18,1.84,.85,2.04,.36,.1,.41,.12,2.65,.12q1.36,0,1.67-.05c.51-.09,.77-.33,.81-.76,0-.1,0-.14,0-.37v-.14h-3.3v-1.59h5.85v1.18c0,1.42-.05,1.92-.22,2.38-.3,.8-.9,1.19-1.98,1.3-.27,.03-1.05,.04-3.59,.04-1.97,0-2.73-.04-3.26-.15-.94-.21-1.5-.61-1.79-1.31-.26-.58-.32-1.19-.32-2.78,0-1.84,.1-2.57,.44-3.17,.38-.67,.99-1.02,2.1-1.17,.59-.08,1.63-.12,3.27-.12,2.34,0,3.08,.04,3.61,.17,1.32,.34,1.75,1,1.74,2.81h-2.56Z"/>
      <path class="cls-1" d="M51.41,146.11v3.73q0,1.84,.17,2.23c.21,.49,.78,.64,2.37,.64,1.95,0,2.5-.05,2.81-.3,.26-.19,.39-.56,.4-1.22q.01-.19,.01-1.15v-3.93h2.62v4.5c0,1.55-.06,2.05-.26,2.54-.36,.84-1.1,1.35-2.23,1.52-.36,.06-1.49,.09-3.05,.09-2.13,0-2.97-.05-3.52-.21-.95-.26-1.51-.77-1.74-1.58-.15-.49-.19-1.04-.19-2.25v-4.61h2.6Z"/>
      <path class="cls-1" d="M65.84,146.11h7.39c1.24,0,1.81,.08,2.32,.31,.74,.34,1.09,1.13,1.09,2.47,0,.92-.17,1.54-.54,1.94-.3,.31-.69,.44-1.85,.61,.19,.01,.36,.03,.42,.03,.9,.05,1.24,.15,1.49,.46,.26,.3,.36,.69,.36,1.42v1.35h-2.65v-1.07c0-.49-.09-.76-.32-.93-.21-.14-.42-.16-1.12-.16h-3.99v2.16h-2.6v-8.58h0Zm6.67,4.32c1.26,0,1.5-.16,1.5-1,0-.55-.05-.78-.22-.97-.19-.2-.41-.24-1.19-.24h-4.16v2.21h4.08Z"/>
      <path class="cls-1" d="M91.89,146.15c1.33,.24,1.97,.92,2.15,2.3,.05,.35,.07,1.04,.07,2.08,0,2.08-.21,2.91-.95,3.51-.51,.44-1.24,.64-2.48,.69-.47,.03-1.61,.04-2.44,.04-2.04,0-3.09-.04-3.6-.14-.95-.16-1.5-.52-1.82-1.15-.33-.63-.41-1.26-.41-3.14,0-1.44,.02-1.8,.18-2.38,.24-.91,.74-1.4,1.71-1.68,.72-.21,1.5-.26,3.76-.26,2.47,0,3.23,.03,3.83,.13m-6.4,2.27c-.35,.27-.45,.69-.45,1.93s.1,1.72,.42,1.99c.35,.28,.77,.34,2.74,.34,2.25,0,2.71-.08,3.01-.49,.24-.31,.31-.75,.31-1.89,0-2.16-.04-2.19-3.25-2.19-1.92,0-2.45,.07-2.78,.31"/>
      <path class="cls-1" d="M102.43,151.95c.03,.59,.09,.74,.4,.85,.19,.08,.92,.13,1.74,.13,3.03,0,3.39-.09,3.39-.8,0-.34-.17-.6-.44-.69q-.29-.09-1.64-.1h-2.37c-1.58,0-2.23-.09-2.79-.37-.61-.32-.9-1-.9-2.17,0-1.54,.44-2.2,1.67-2.49,.69-.18,1.69-.25,3.57-.25,3.01,0,3.7,.08,4.32,.48,.59,.4,.78,.93,.78,2.21h-2.54c0-.74-.26-.84-1.94-.84-.84,0-1.96,.03-2.37,.05-.69,.05-.93,.23-.93,.72,0,.36,.18,.59,.55,.68,.15,.04,.21,.05,1.05,.06h2.43c.23,0,1.39,.04,1.82,.07,1.63,.08,2.28,.8,2.28,2.52,0,1.58-.47,2.27-1.72,2.55-.64,.14-1.92,.22-3.78,.22-2.98,0-3.62-.07-4.39-.45-.52-.26-.79-.91-.79-1.93,0-.08,0-.24,0-.43h2.56Z"/>
      <polygon class="cls-1" points="84.79 95.82 84.79 117.94 69.53 95.82 54.39 95.82 54.39 140.04 69.53 140.04 69.53 117.93 84.79 140.04 100.27 140.04 100.27 95.82 84.79 95.82 84.79 95.82"/>
      <path class="cls-1" d="M141.86,95.83h-18.42l-12.9,44.22h14.73l1.84-5.53h11.06l1.85,5.53h14.74l-12.9-44.22h0Zm-12.9,31.32l3.69-14.74,3.68,14.74h-7.37Z"/>
      <path class="cls-1" d="M31.32,95.83H12.9L0,140.04H14.74l1.84-5.53h11.05l1.84,5.53h14.74l-12.9-44.22h0Zm-12.89,31.32l3.69-14.74,3.68,14.74h-7.37Z"/>
    </g>
  </g>
</svg>